<?xml version="1.0" encoding="utf-8"?>
<!-- Generator: Adobe Illustrator 27.1.1, SVG Export Plug-In . SVG Version: 6.00 Build 0)  -->
<svg version="1.1" id="Layer_1" xmlns="http://www.w3.org/2000/svg" xmlns:xlink="http://www.w3.org/1999/xlink" x="0px" y="0px"
	 viewBox="0 0 512 512" style="enable-background:new 0 0 512 512;" xml:space="preserve">
<style type="text/css">
	.st0{fill:#BABABA;}
</style>
<path class="st0" d="M441.1,181.9L156.4,17.6C143.5,10,128.8,6,113.8,6C69.1,6,28.1,41.7,28.1,91.7c0,8,2.6,15.7,7.4,22.1
	l77.9,103.7c0,0,0,0.1,0.1,0.1c0,0.1,0.1,0.1,0.1,0.2c17,22.8,16.9,54.1-0.2,76.8L35.6,398.2c-4.8,6.4-7.4,14.1-7.4,22.1v0
	c0,40.1,26.4,71,60,81.6c21.4,6.9,44.6,4.9,64.4-5.5c1.3-0.6,2.6-1.3,3.8-2l284.7-164.4C498.1,297.1,498.1,214.9,441.1,181.9
	L441.1,181.9z"/>
</svg>
